<svg width="320" height="90" viewBox="0 0 320 90" fill="none" xmlns="http://www.w3.org/2000/svg">
<path d="M158.384 35.68C154.976 32.032 150.512 29.68 144.8 29.68C136.88 29.68 130.4 33.184 130.4 38.8C130.4 49.216 151.664 48.4 151.664 54.832C151.664 57.184 148.976 58.864 144.464 58.864C139.52 58.864 136.592 57.376 134.384 54.4L129.632 57.472C133.184 62.32 137.264 64.72 143.648 64.72C152.72 64.72 159.344 60.928 159.344 54.592C159.344 42.688 137.216 43.312 137.216 38.464C137.216 36.208 140.192 34.912 143.408 34.912C148.064 34.912 151.424 36.4 153.632 38.848L158.384 35.68Z" fill="#232323" fill-opacity="0.9"/>
<path d="M172.999 45.952C171.655 47.104 170.791 49.168 170.071 50.8L169.063 50.368C169.831 48.736 170.791 46.72 170.791 44.944V29.2H164.887V64H170.791L170.695 54.832L173.047 52.768L182.263 64.048H189.607L177.031 49.312L187.111 40.048H179.767L172.999 45.952Z" fill="#232323" fill-opacity="0.9"/>
<path d="M193.603 36.4H199.986V30.4H193.603V36.4ZM193.939 64H199.747V40H193.939V64Z" fill="#232323" fill-opacity="0.9"/>
<path d="M206.954 58.192C206.954 61.936 209.834 64 215.306 64H218.858V58.528H215.882C213.674 58.528 212.858 57.904 212.858 55.936V29.2H206.954V58.192Z" fill="#232323" fill-opacity="0.9"/>
<path d="M225.029 58.192C225.029 61.936 227.909 64 233.381 64H236.933V58.528H233.957C231.749 58.528 230.933 57.904 230.933 55.936V29.2H225.029V58.192Z" fill="#232323" fill-opacity="0.9"/>
<path d="M285.92 30.4H279.632C279.632 30.4 279.632 43.696 279.632 50.56C279.68 54.928 276.032 58.816 271.088 58.816C266.192 58.816 262.592 54.928 262.544 50.56V30.4H256.256C256.256 30.4 256.208 42.352 256.208 52.336C256.256 60.352 262.688 64.72 271.088 64.72C279.44 64.72 285.968 60.352 285.92 52.336V30.4Z" fill="#232323" fill-opacity="0.9"/>
<path d="M298.885 62.128C298.885 60.688 298.021 59.008 297.589 57.616L298.597 57.28C299.077 58.624 299.317 60.592 300.325 61.6C302.101 63.472 304.597 64.72 307.765 64.72C314.725 64.72 319.573 58.816 319.765 51.904C319.909 44.8 314.965 39.232 307.765 39.232C304.549 39.232 302.053 40.336 300.277 42.208C299.317 43.216 299.077 45.184 298.597 46.576L297.589 46.24C298.069 44.848 298.885 43.168 298.885 41.728V40L292.981 40.048V76.048L298.885 76V62.128ZM306.949 44.704C311.461 44.704 313.861 47.776 313.861 51.808C313.861 55.888 311.461 59.248 306.949 59.248C302.485 59.248 299.941 55.888 299.941 51.808C299.941 47.776 302.485 44.704 306.949 44.704Z" fill="#232323" fill-opacity="0.9"/>
<path d="M90.0699 45C90.0699 69.8528 69.9071 90 45.035 90C20.1628 90 0 69.8528 0 45C0 20.1472 20.1628 0 45.035 0C69.9071 0 90.0699 20.1472 90.0699 45Z" fill="#232323" fill-opacity="0.9"/>
<path d="M52.088 59.016C53.368 57.8 53.816 55.496 54.392 53.832L55.736 54.344C55.16 56.008 54.008 57.992 53.944 59.72V61H61.752V29H53.944V45.896C53.944 52.232 50.104 55.048 45.432 55.048C41.144 55.048 38.136 52.552 38.136 45.896V29H30.264V50.952C30.264 58.184 36.344 61.96 42.616 61.96C47.032 61.96 49.464 61.576 52.088 59.016Z" fill="white"/>
</svg>
